#N canvas 2189 146 414 405 10;
#N canvas 362 23 1366 725 twelvedifferenttones 0;
#X obj 23 41 inlet;
#N canvas 441 284 450 300 tonemath 0;
#X obj 227 120 f;
#X obj 227 144 * 1;
#X obj 205 171 osc~ 300;
#X obj 155 207 *~;
#X obj 155 246 dac~;
#X obj 269 47 inlet;
#X obj 168 35 inlet;
#X obj 291 84 r starttone;
#X obj 168 73 t b b b b;
#X msg 267 139 0.25;
#X obj 134 162 line~;
#X msg 169 125 0.5 5;
#X msg 130 126 0 20;
#X obj 130 97 delay 50;
#X connect 0 0 1 0;
#X connect 1 0 2 0;
#X connect 2 0 3 0;
#X connect 3 0 4 0;
#X connect 3 0 4 1;
#X connect 5 0 1 1;
#X connect 6 0 8 0;
#X connect 7 0 0 0;
#X connect 8 0 13 0;
#X connect 8 1 11 0;
#X connect 8 2 0 0;
#X connect 8 3 9 0;
#X connect 9 0 2 1;
#X connect 10 0 3 1;
#X connect 11 0 10 0;
#X connect 12 0 10 0;
#X connect 13 0 12 0;
#X restore 35 67 pd tonemath;
#X obj 23 88 outlet;
#X obj 98 24 loadbang;
#X msg 98 45 1;
#X obj 73 90 inlet;
#N canvas 495 388 450 300 tonemath 0;
#X obj 237 130 f;
#X obj 237 154 * 1;
#X obj 215 181 osc~ 300;
#X obj 165 217 *~;
#X obj 165 256 dac~;
#X obj 279 57 inlet;
#X obj 178 45 inlet;
#X obj 301 94 r starttone;
#X obj 178 83 t b b b b;
#X msg 277 149 0.25;
#X obj 144 172 line~;
#X msg 179 135 0.5 5;
#X msg 140 136 0 20;
#X obj 140 107 delay 50;
#X connect 0 0 1 0;
#X connect 1 0 2 0;
#X connect 2 0 3 0;
#X connect 3 0 4 0;
#X connect 3 0 4 1;
#X connect 5 0 1 1;
#X connect 6 0 8 0;
#X connect 7 0 0 0;
#X connect 8 0 13 0;
#X connect 8 1 11 0;
#X connect 8 2 0 0;
#X connect 8 3 9 0;
#X connect 9 0 2 1;
#X connect 10 0 3 1;
#X connect 11 0 10 0;
#X connect 12 0 10 0;
#X connect 13 0 12 0;
#X restore 85 116 pd tonemath;
#X obj 73 137 outlet;
#X obj 148 73 loadbang;
#X obj 120 137 inlet;
#N canvas 495 388 450 300 tonemath 0;
#X obj 247 140 f;
#X obj 247 164 * 1;
#X obj 225 191 osc~ 300;
#X obj 175 227 *~;
#X obj 175 266 dac~;
#X obj 289 67 inlet;
#X obj 188 55 inlet;
#X obj 311 104 r starttone;
#X obj 188 93 t b b b b;
#X msg 287 159 0.25;
#X obj 154 182 line~;
#X msg 189 145 0.5 5;
#X msg 150 146 0 20;
#X obj 150 117 delay 50;
#X connect 0 0 1 0;
#X connect 1 0 2 0;
#X connect 2 0 3 0;
#X connect 3 0 4 0;
#X connect 3 0 4 1;
#X connect 5 0 1 1;
#X connect 6 0 8 0;
#X connect 7 0 0 0;
#X connect 8 0 13 0;
#X connect 8 1 11 0;
#X connect 8 2 0 0;
#X connect 8 3 9 0;
#X connect 9 0 2 1;
#X connect 10 0 3 1;
#X connect 11 0 10 0;
#X connect 12 0 10 0;
#X connect 13 0 12 0;
#X restore 132 163 pd tonemath;
#X obj 120 184 outlet;
#X obj 195 120 loadbang;
#X obj 170 186 inlet;
#N canvas 495 388 450 300 tonemath 0;
#X obj 257 150 f;
#X obj 257 174 * 1;
#X obj 235 201 osc~ 300;
#X obj 185 237 *~;
#X obj 185 276 dac~;
#X obj 299 77 inlet;
#X obj 198 65 inlet;
#X obj 321 114 r starttone;
#X obj 198 103 t b b b b;
#X msg 297 169 0.25;
#X obj 164 192 line~;
#X msg 199 155 0.5 5;
#X msg 160 156 0 20;
#X obj 160 127 delay 50;
#X connect 0 0 1 0;
#X connect 1 0 2 0;
#X connect 2 0 3 0;
#X connect 3 0 4 0;
#X connect 3 0 4 1;
#X connect 5 0 1 1;
#X connect 6 0 8 0;
#X connect 7 0 0 0;
#X connect 8 0 13 0;
#X connect 8 1 11 0;
#X connect 8 2 0 0;
#X connect 8 3 9 0;
#X connect 9 0 2 1;
#X connect 10 0 3 1;
#X connect 11 0 10 0;
#X connect 12 0 10 0;
#X connect 13 0 12 0;
#X restore 182 212 pd tonemath;
#X obj 170 233 outlet;
#X obj 245 169 loadbang;
#X obj 218 234 inlet;
#N canvas 495 388 450 300 tonemath 0;
#X obj 277 170 f;
#X obj 277 194 * 1;
#X obj 255 221 osc~ 300;
#X obj 205 257 *~;
#X obj 205 296 dac~;
#X obj 319 97 inlet;
#X obj 218 85 inlet;
#X obj 341 134 r starttone;
#X obj 218 123 t b b b b;
#X msg 317 189 0.25;
#X obj 184 212 line~;
#X msg 219 175 0.5 5;
#X msg 180 176 0 20;
#X obj 180 147 delay 50;
#X connect 0 0 1 0;
#X connect 1 0 2 0;
#X connect 2 0 3 0;
#X connect 3 0 4 0;
#X connect 3 0 4 1;
#X connect 5 0 1 1;
#X connect 6 0 8 0;
#X connect 7 0 0 0;
#X connect 8 0 13 0;
#X connect 8 1 11 0;
#X connect 8 2 0 0;
#X connect 8 3 9 0;
#X connect 9 0 2 1;
#X connect 10 0 3 1;
#X connect 11 0 10 0;
#X connect 12 0 10 0;
#X connect 13 0 12 0;
#X restore 230 260 pd tonemath;
#X obj 218 281 outlet;
#X obj 293 217 loadbang;
#X obj 268 283 inlet;
#N canvas 495 388 450 300 tonemath 0;
#X obj 267 160 f;
#X obj 267 184 * 1;
#X obj 245 211 osc~ 300;
#X obj 195 247 *~;
#X obj 195 286 dac~;
#X obj 309 87 inlet;
#X obj 208 75 inlet;
#X obj 331 124 r starttone;
#X obj 208 113 t b b b b;
#X msg 307 179 0.25;
#X obj 174 202 line~;
#X msg 209 165 0.5 5;
#X msg 170 166 0 20;
#X obj 170 137 delay 50;
#X connect 0 0 1 0;
#X connect 1 0 2 0;
#X connect 2 0 3 0;
#X connect 3 0 4 0;
#X connect 3 0 4 1;
#X connect 5 0 1 1;
#X connect 6 0 8 0;
#X connect 7 0 0 0;
#X connect 8 0 13 0;
#X connect 8 1 11 0;
#X connect 8 2 0 0;
#X connect 8 3 9 0;
#X connect 9 0 2 1;
#X connect 10 0 3 1;
#X connect 11 0 10 0;
#X connect 12 0 10 0;
#X connect 13 0 12 0;
#X restore 280 309 pd tonemath;
#X obj 268 330 outlet;
#X obj 343 266 loadbang;
#X obj 315 330 inlet;
#N canvas 495 388 450 300 tonemath 0;
#X obj 287 180 f;
#X obj 287 204 * 1;
#X obj 265 231 osc~ 300;
#X obj 215 267 *~;
#X obj 215 306 dac~;
#X obj 329 107 inlet;
#X obj 228 95 inlet;
#X obj 351 144 r starttone;
#X obj 228 133 t b b b b;
#X msg 327 199 0.25;
#X obj 194 222 line~;
#X msg 229 185 0.5 5;
#X msg 190 186 0 20;
#X obj 190 157 delay 50;
#X connect 0 0 1 0;
#X connect 1 0 2 0;
#X connect 2 0 3 0;
#X connect 3 0 4 0;
#X connect 3 0 4 1;
#X connect 5 0 1 1;
#X connect 6 0 8 0;
#X connect 7 0 0 0;
#X connect 8 0 13 0;
#X connect 8 1 11 0;
#X connect 8 2 0 0;
#X connect 8 3 9 0;
#X connect 9 0 2 1;
#X connect 10 0 3 1;
#X connect 11 0 10 0;
#X connect 12 0 10 0;
#X connect 13 0 12 0;
#X restore 327 356 pd tonemath;
#X obj 315 377 outlet;
#X obj 390 313 loadbang;
#X obj 365 379 inlet;
#N canvas 495 388 450 300 tonemath 0;
#X obj 297 190 f;
#X obj 297 214 * 1;
#X obj 275 241 osc~ 300;
#X obj 225 277 *~;
#X obj 225 316 dac~;
#X obj 339 117 inlet;
#X obj 238 105 inlet;
#X obj 361 154 r starttone;
#X obj 238 143 t b b b b;
#X msg 337 209 0.25;
#X obj 204 232 line~;
#X msg 239 195 0.5 5;
#X msg 200 196 0 20;
#X obj 200 167 delay 50;
#X connect 0 0 1 0;
#X connect 1 0 2 0;
#X connect 2 0 3 0;
#X connect 3 0 4 0;
#X connect 3 0 4 1;
#X connect 5 0 1 1;
#X connect 6 0 8 0;
#X connect 7 0 0 0;
#X connect 8 0 13 0;
#X connect 8 1 11 0;
#X connect 8 2 0 0;
#X connect 8 3 9 0;
#X connect 9 0 2 1;
#X connect 10 0 3 1;
#X connect 11 0 10 0;
#X connect 12 0 10 0;
#X connect 13 0 12 0;
#X restore 377 405 pd tonemath;
#X obj 365 426 outlet;
#X obj 440 362 loadbang;
#X obj 413 426 inlet;
#N canvas 495 388 450 300 tonemath 0;
#X obj 307 200 f;
#X obj 307 224 * 1;
#X obj 285 251 osc~ 300;
#X obj 235 287 *~;
#X obj 235 326 dac~;
#X obj 349 127 inlet;
#X obj 248 115 inlet;
#X obj 371 164 r starttone;
#X obj 248 153 t b b b b;
#X msg 347 219 0.25;
#X obj 214 242 line~;
#X msg 249 205 0.5 5;
#X msg 210 206 0 20;
#X obj 210 177 delay 50;
#X connect 0 0 1 0;
#X connect 1 0 2 0;
#X connect 2 0 3 0;
#X connect 3 0 4 0;
#X connect 3 0 4 1;
#X connect 5 0 1 1;
#X connect 6 0 8 0;
#X connect 7 0 0 0;
#X connect 8 0 13 0;
#X connect 8 1 11 0;
#X connect 8 2 0 0;
#X connect 8 3 9 0;
#X connect 9 0 2 1;
#X connect 10 0 3 1;
#X connect 11 0 10 0;
#X connect 12 0 10 0;
#X connect 13 0 12 0;
#X restore 425 452 pd tonemath;
#X obj 413 473 outlet;
#X obj 488 409 loadbang;
#X obj 463 475 inlet;
#N canvas 495 388 450 300 tonemath 0;
#X obj 317 210 f;
#X obj 317 234 * 1;
#X obj 295 261 osc~ 300;
#X obj 245 297 *~;
#X obj 245 336 dac~;
#X obj 359 137 inlet;
#X obj 258 125 inlet;
#X obj 381 174 r starttone;
#X obj 258 163 t b b b b;
#X msg 357 229 0.25;
#X obj 224 252 line~;
#X msg 259 215 0.5 5;
#X msg 220 216 0 20;
#X obj 220 187 delay 50;
#X connect 0 0 1 0;
#X connect 1 0 2 0;
#X connect 2 0 3 0;
#X connect 3 0 4 0;
#X connect 3 0 4 1;
#X connect 5 0 1 1;
#X connect 6 0 8 0;
#X connect 7 0 0 0;
#X connect 8 0 13 0;
#X connect 8 1 11 0;
#X connect 8 2 0 0;
#X connect 8 3 9 0;
#X connect 9 0 2 1;
#X connect 10 0 3 1;
#X connect 11 0 10 0;
#X connect 12 0 10 0;
#X connect 13 0 12 0;
#X restore 475 501 pd tonemath;
#X obj 463 522 outlet;
#X obj 538 458 loadbang;
#X obj 510 522 inlet;
#N canvas 495 388 450 300 tonemath 0;
#X obj 327 220 f;
#X obj 327 244 * 1;
#X obj 305 271 osc~ 300;
#X obj 255 307 *~;
#X obj 255 346 dac~;
#X obj 369 147 inlet;
#X obj 268 135 inlet;
#X obj 391 184 r starttone;
#X obj 268 173 t b b b b;
#X msg 367 239 0.25;
#X obj 234 262 line~;
#X msg 269 225 0.5 5;
#X msg 230 226 0 20;
#X obj 230 197 delay 50;
#X connect 0 0 1 0;
#X connect 1 0 2 0;
#X connect 2 0 3 0;
#X connect 3 0 4 0;
#X connect 3 0 4 1;
#X connect 5 0 1 1;
#X connect 6 0 8 0;
#X connect 7 0 0 0;
#X connect 8 0 13 0;
#X connect 8 1 11 0;
#X connect 8 2 0 0;
#X connect 8 3 9 0;
#X connect 9 0 2 1;
#X connect 10 0 3 1;
#X connect 11 0 10 0;
#X connect 12 0 10 0;
#X connect 13 0 12 0;
#X restore 522 548 pd tonemath;
#X obj 510 569 outlet;
#X obj 585 505 loadbang;
#X obj 560 571 inlet;
#N canvas 495 388 450 300 tonemath 0;
#X obj 337 230 f;
#X obj 337 254 * 1;
#X obj 315 281 osc~ 300;
#X obj 265 317 *~;
#X obj 265 356 dac~;
#X obj 379 157 inlet;
#X obj 278 145 inlet;
#X obj 401 194 r starttone;
#X obj 278 183 t b b b b;
#X msg 377 249 0.25;
#X obj 244 272 line~;
#X msg 279 235 0.5 5;
#X msg 240 236 0 20;
#X obj 240 207 delay 50;
#X connect 0 0 1 0;
#X connect 1 0 2 0;
#X connect 2 0 3 0;
#X connect 3 0 4 0;
#X connect 3 0 4 1;
#X connect 5 0 1 1;
#X connect 6 0 8 0;
#X connect 7 0 0 0;
#X connect 8 0 13 0;
#X connect 8 1 11 0;
#X connect 8 2 0 0;
#X connect 8 3 9 0;
#X connect 9 0 2 1;
#X connect 10 0 3 1;
#X connect 11 0 10 0;
#X connect 12 0 10 0;
#X connect 13 0 12 0;
#X restore 572 597 pd tonemath;
#X obj 560 618 outlet;
#X obj 635 554 loadbang;
#X msg 148 94 2;
#X msg 195 141 3;
#X msg 245 190 4;
#X msg 293 238 5;
#X msg 343 287 6;
#X msg 390 334 7;
#X msg 440 383 8;
#X msg 488 430 9;
#X msg 538 479 10;
#X msg 585 526 11;
#X msg 635 575 12;
#X obj 523 111 loadbang;
#X msg 523 136 \; pd dsp 1;
#X connect 0 0 1 0;
#X connect 0 0 2 0;
#X connect 3 0 4 0;
#X connect 4 0 1 1;
#X connect 5 0 7 0;
#X connect 5 0 6 0;
#X connect 8 0 49 0;
#X connect 9 0 11 0;
#X connect 9 0 10 0;
#X connect 12 0 50 0;
#X connect 13 0 14 0;
#X connect 13 0 15 0;
#X connect 16 0 51 0;
#X connect 17 0 19 0;
#X connect 17 0 18 0;
#X connect 20 0 52 0;
#X connect 21 0 23 0;
#X connect 21 0 22 0;
#X connect 24 0 53 0;
#X connect 25 0 27 0;
#X connect 25 0 26 0;
#X connect 28 0 54 0;
#X connect 29 0 31 0;
#X connect 29 0 30 0;
#X connect 32 0 55 0;
#X connect 33 0 35 0;
#X connect 33 0 34 0;
#X connect 36 0 56 0;
#X connect 37 0 39 0;
#X connect 37 0 38 0;
#X connect 40 0 57 0;
#X connect 41 0 43 0;
#X connect 41 0 42 0;
#X connect 44 0 58 0;
#X connect 45 0 47 0;
#X connect 45 0 46 0;
#X connect 48 0 59 0;
#X connect 49 0 6 1;
#X connect 50 0 10 1;
#X connect 51 0 14 1;
#X connect 52 0 18 1;
#X connect 53 0 22 1;
#X connect 54 0 26 1;
#X connect 55 0 30 1;
#X connect 56 0 34 1;
#X connect 57 0 38 1;
#X connect 58 0 42 1;
#X connect 59 0 46 1;
#X connect 60 0 61 0;
#X restore 16 151 pd twelvedifferenttones;
#N canvas 519 214 523 468 toneset 0;
#X obj 366 416 s starttone;
#X obj 315 188 tgl 15 0 empty empty empty 17 7 0 10 -262144 -1 -1 0
1;
#X obj 370 265 pack f 3.6e+006;
#X obj 370 287 line;
#X floatatom 366 320 5 0 0 0 - - -;
#X obj 317 212 metro 3.6e+006;
#X obj 317 236 f;
#X obj 417 374 / 2;
#X floatatom 366 386 5 0 0 0 - - -;
#X obj 156 126 pow;
#X obj 206 66 r hour;
#X obj 265 272 t b f;
#X obj 270 61 r minute;
#X obj 220 164 + 1;
#X obj 313 160 r bigbang;
#X obj 110 16 r bigbang;
#X obj 260 133 *;
#X obj 370 242 *;
#X msg 419 79 2;
#X obj 421 106 pow;
#X obj 454 93 / 12;
#X obj 421 25 loadbang;
#X obj 421 49 t b b;
#X obj 378 31 bng 15 250 50 0 empty empty empty 17 7 0 10 -262144 -1
-1;
#X obj 264 97 / 60;
#X obj 304 123 - 1;
#X obj 145 84 f;
#X obj 112 47 t b b;
#X msg 74 85 110;
#X obj 366 347 moses 220;
#X obj 14 47 loadbang;
#X obj 116 145 * 1;
#X obj 176 183 * 1;
#X msg 453 73 1;
#X obj 420 128 s semitone;
#X obj 425 221 r semitone;
#X obj 319 97 r semitone;
#X obj 160 42 r semitone;
#X connect 1 0 5 0;
#X connect 2 0 3 0;
#X connect 3 0 4 0;
#X connect 4 0 6 1;
#X connect 4 0 29 0;
#X connect 5 0 6 0;
#X connect 6 0 17 0;
#X connect 7 0 29 0;
#X connect 8 0 0 0;
#X connect 9 0 31 1;
#X connect 10 0 9 1;
#X connect 11 0 6 0;
#X connect 11 1 3 0;
#X connect 12 0 24 0;
#X connect 13 0 32 1;
#X connect 14 0 1 0;
#X connect 15 0 27 0;
#X connect 16 0 13 0;
#X connect 17 0 2 0;
#X connect 18 0 19 0;
#X connect 19 0 34 0;
#X connect 20 0 19 1;
#X connect 21 0 22 0;
#X connect 22 0 18 0;
#X connect 22 1 33 0;
#X connect 23 0 22 0;
#X connect 24 0 16 0;
#X connect 25 0 16 1;
#X connect 26 0 9 0;
#X connect 27 0 28 0;
#X connect 27 1 26 0;
#X connect 28 0 31 0;
#X connect 29 0 8 0;
#X connect 29 1 7 0;
#X connect 30 0 28 0;
#X connect 31 0 32 0;
#X connect 32 0 11 0;
#X connect 33 0 20 0;
#X connect 35 0 17 1;
#X connect 36 0 25 0;
#X connect 37 0 26 1;
#X restore 16 194 pd toneset;
#X obj 17 16 s hour;
#X floatatom 17 -11 5 1 12 0 - - -;
#X floatatom 63 -11 5 0 59 0 - - -;
#X obj 63 16 s minute;
#X obj 17 42 bng 30 250 50 0 empty empty empty 17 7 0 10 -262144 -1
-1;
#X obj 17 78 s bigbang;
#N canvas 189 2 1366 725 twelvedifferentspots 0;
#X obj 46 195 inlet;
#X obj 40 258 timer;
#X obj 19 172 r bigbang;
#X obj 40 348 sin;
#X obj 76 347 cos;
#X obj 59 279 % 1000;
#X obj 59 300 / 1000;
#X obj 40 323 * 6.28319;
#X obj 9 400 translateXYZ;
#X obj 9 289 gemhead;
#X obj 17 471 circle;
#X obj 16 372 * 0.25;
#X obj 61 372 * 0.25;
#X obj 45 422 loadbang;
#X obj 1192 18 loadbang;
#X msg 1194 61 create;
#X obj 1194 87 gemwin;
#X obj 21 258 tgl 15 0 empty empty empty 17 7 0 10 -262144 -1 -1 0
1;
#X obj 1149 64 tgl 15 0 empty empty empty 17 7 0 10 -262144 -1 -1 1
1;
#X msg 45 448 0.1;
#X obj 21 218 delay 200;
#X obj 143 195 inlet;
#X obj 137 258 timer;
#X obj 116 172 r bigbang;
#X obj 137 348 sin;
#X obj 173 347 cos;
#X obj 156 279 % 1000;
#X obj 156 300 / 1000;
#X obj 137 323 * 6.28319;
#X obj 106 400 translateXYZ;
#X obj 106 289 gemhead;
#X obj 114 471 circle;
#X obj 142 422 loadbang;
#X obj 118 258 tgl 15 0 empty empty empty 17 7 0 10 -262144 -1 -1 0
1;
#X msg 142 448 0.1;
#X obj 118 218 delay 200;
#X obj 238 196 inlet;
#X obj 232 259 timer;
#X obj 211 173 r bigbang;
#X obj 232 349 sin;
#X obj 268 348 cos;
#X obj 251 280 % 1000;
#X obj 251 301 / 1000;
#X obj 232 324 * 6.28319;
#X obj 201 401 translateXYZ;
#X obj 201 290 gemhead;
#X obj 209 472 circle;
#X obj 237 423 loadbang;
#X obj 213 259 tgl 15 0 empty empty empty 17 7 0 10 -262144 -1 -1 0
1;
#X msg 237 449 0.1;
#X obj 213 219 delay 200;
#X obj 335 196 inlet;
#X obj 329 259 timer;
#X obj 308 173 r bigbang;
#X obj 329 349 sin;
#X obj 365 348 cos;
#X obj 348 280 % 1000;
#X obj 348 301 / 1000;
#X obj 329 324 * 6.28319;
#X obj 298 401 translateXYZ;
#X obj 298 290 gemhead;
#X obj 306 472 circle;
#X obj 334 423 loadbang;
#X obj 310 259 tgl 15 0 empty empty empty 17 7 0 10 -262144 -1 -1 0
1;
#X msg 334 449 0.1;
#X obj 310 219 delay 200;
#X obj 428 197 inlet;
#X obj 422 260 timer;
#X obj 401 174 r bigbang;
#X obj 422 350 sin;
#X obj 458 349 cos;
#X obj 441 281 % 1000;
#X obj 441 302 / 1000;
#X obj 422 325 * 6.28319;
#X obj 391 402 translateXYZ;
#X obj 391 291 gemhead;
#X obj 399 473 circle;
#X obj 427 424 loadbang;
#X obj 403 260 tgl 15 0 empty empty empty 17 7 0 10 -262144 -1 -1 0
1;
#X msg 427 450 0.1;
#X obj 403 220 delay 200;
#X obj 525 197 inlet;
#X obj 519 260 timer;
#X obj 498 174 r bigbang;
#X obj 519 350 sin;
#X obj 555 349 cos;
#X obj 538 281 % 1000;
#X obj 538 302 / 1000;
#X obj 519 325 * 6.28319;
#X obj 488 402 translateXYZ;
#X obj 488 291 gemhead;
#X obj 496 473 circle;
#X obj 524 424 loadbang;
#X obj 500 260 tgl 15 0 empty empty empty 17 7 0 10 -262144 -1 -1 0
1;
#X msg 524 450 0.1;
#X obj 500 220 delay 200;
#X obj 620 198 inlet;
#X obj 614 261 timer;
#X obj 593 175 r bigbang;
#X obj 614 351 sin;
#X obj 650 350 cos;
#X obj 633 282 % 1000;
#X obj 633 303 / 1000;
#X obj 614 326 * 6.28319;
#X obj 583 403 translateXYZ;
#X obj 583 292 gemhead;
#X obj 591 474 circle;
#X obj 619 425 loadbang;
#X obj 595 261 tgl 15 0 empty empty empty 17 7 0 10 -262144 -1 -1 0
1;
#X msg 619 451 0.1;
#X obj 595 221 delay 200;
#X obj 717 198 inlet;
#X obj 711 261 timer;
#X obj 690 175 r bigbang;
#X obj 711 351 sin;
#X obj 747 350 cos;
#X obj 730 282 % 1000;
#X obj 730 303 / 1000;
#X obj 711 326 * 6.28319;
#X obj 680 403 translateXYZ;
#X obj 680 292 gemhead;
#X obj 688 474 circle;
#X obj 716 425 loadbang;
#X obj 692 261 tgl 15 0 empty empty empty 17 7 0 10 -262144 -1 -1 0
1;
#X msg 716 451 0.1;
#X obj 692 221 delay 200;
#X obj 810 198 inlet;
#X obj 804 261 timer;
#X obj 783 175 r bigbang;
#X obj 804 351 sin;
#X obj 840 350 cos;
#X obj 823 282 % 1000;
#X obj 823 303 / 1000;
#X obj 804 326 * 6.28319;
#X obj 773 403 translateXYZ;
#X obj 773 292 gemhead;
#X obj 781 474 circle;
#X obj 809 425 loadbang;
#X obj 785 261 tgl 15 0 empty empty empty 17 7 0 10 -262144 -1 -1 0
1;
#X msg 809 451 0.1;
#X obj 785 221 delay 200;
#X obj 907 198 inlet;
#X obj 901 261 timer;
#X obj 880 175 r bigbang;
#X obj 901 351 sin;
#X obj 937 350 cos;
#X obj 920 282 % 1000;
#X obj 920 303 / 1000;
#X obj 901 326 * 6.28319;
#X obj 870 403 translateXYZ;
#X obj 870 292 gemhead;
#X obj 878 474 circle;
#X obj 906 425 loadbang;
#X obj 882 261 tgl 15 0 empty empty empty 17 7 0 10 -262144 -1 -1 0
1;
#X msg 906 451 0.1;
#X obj 882 221 delay 200;
#X obj 1002 199 inlet;
#X obj 996 262 timer;
#X obj 975 176 r bigbang;
#X obj 996 352 sin;
#X obj 1032 351 cos;
#X obj 1015 283 % 1000;
#X obj 1015 304 / 1000;
#X obj 996 327 * 6.28319;
#X obj 965 404 translateXYZ;
#X obj 965 293 gemhead;
#X obj 973 475 circle;
#X obj 1001 426 loadbang;
#X obj 977 262 tgl 15 0 empty empty empty 17 7 0 10 -262144 -1 -1 0
1;
#X msg 1001 452 0.1;
#X obj 977 222 delay 200;
#X obj 1099 199 inlet;
#X obj 1093 262 timer;
#X obj 1072 176 r bigbang;
#X obj 1093 352 sin;
#X obj 1129 351 cos;
#X obj 1112 283 % 1000;
#X obj 1112 304 / 1000;
#X obj 1093 327 * 6.28319;
#X obj 1062 404 translateXYZ;
#X obj 1062 293 gemhead;
#X obj 1070 475 circle;
#X obj 1098 426 loadbang;
#X obj 1074 262 tgl 15 0 empty empty empty 17 7 0 10 -262144 -1 -1
0 1;
#X msg 1098 452 0.1;
#X obj 1074 222 delay 200;
#X obj 113 372 * 0.5;
#X obj 158 372 * 0.5;
#X obj 208 373 * 0.75;
#X obj 253 373 * 0.75;
#X obj 305 373 * 1;
#X obj 350 373 * 1;
#X obj 398 374 * 1.25;
#X obj 443 374 * 1.25;
#X obj 495 374 * 1.5;
#X obj 540 374 * 1.5;
#X obj 590 375 * 1.75;
#X obj 635 375 * 1.75;
#X obj 687 375 * 2;
#X obj 732 375 * 2;
#X obj 780 375 * 2.25;
#X obj 825 375 * 2.25;
#X obj 877 375 * 2.5;
#X obj 922 375 * 2.5;
#X obj 972 376 * 2.75;
#X obj 1017 376 * 2.75;
#X obj 1069 376 * 3;
#X obj 1114 376 * 3;
#X connect 0 0 1 1;
#X connect 0 0 17 0;
#X connect 0 0 20 0;
#X connect 1 0 5 0;
#X connect 2 0 1 0;
#X connect 3 0 11 0;
#X connect 4 0 12 0;
#X connect 5 0 6 0;
#X connect 6 0 7 0;
#X connect 7 0 3 0;
#X connect 7 0 4 0;
#X connect 8 0 10 0;
#X connect 9 0 8 0;
#X connect 11 0 8 1;
#X connect 12 0 8 2;
#X connect 13 0 19 0;
#X connect 14 0 15 0;
#X connect 14 0 18 0;
#X connect 15 0 16 0;
#X connect 17 0 9 0;
#X connect 18 0 16 0;
#X connect 19 0 10 1;
#X connect 20 0 17 0;
#X connect 21 0 22 1;
#X connect 21 0 33 0;
#X connect 21 0 35 0;
#X connect 22 0 26 0;
#X connect 23 0 22 0;
#X connect 24 0 186 0;
#X connect 25 0 187 0;
#X connect 26 0 27 0;
#X connect 27 0 28 0;
#X connect 28 0 24 0;
#X connect 28 0 25 0;
#X connect 29 0 31 0;
#X connect 30 0 29 0;
#X connect 32 0 34 0;
#X connect 33 0 30 0;
#X connect 34 0 31 1;
#X connect 35 0 33 0;
#X connect 36 0 37 1;
#X connect 36 0 48 0;
#X connect 36 0 50 0;
#X connect 37 0 41 0;
#X connect 38 0 37 0;
#X connect 39 0 188 0;
#X connect 40 0 189 0;
#X connect 41 0 42 0;
#X connect 42 0 43 0;
#X connect 43 0 39 0;
#X connect 43 0 40 0;
#X connect 44 0 46 0;
#X connect 45 0 44 0;
#X connect 47 0 49 0;
#X connect 48 0 45 0;
#X connect 49 0 46 1;
#X connect 50 0 48 0;
#X connect 51 0 52 1;
#X connect 51 0 63 0;
#X connect 51 0 65 0;
#X connect 52 0 56 0;
#X connect 53 0 52 0;
#X connect 54 0 190 0;
#X connect 55 0 191 0;
#X connect 56 0 57 0;
#X connect 57 0 58 0;
#X connect 58 0 54 0;
#X connect 58 0 55 0;
#X connect 59 0 61 0;
#X connect 60 0 59 0;
#X connect 62 0 64 0;
#X connect 63 0 60 0;
#X connect 64 0 61 1;
#X connect 65 0 63 0;
#X connect 66 0 67 1;
#X connect 66 0 78 0;
#X connect 66 0 80 0;
#X connect 67 0 71 0;
#X connect 68 0 67 0;
#X connect 69 0 192 0;
#X connect 70 0 193 0;
#X connect 71 0 72 0;
#X connect 72 0 73 0;
#X connect 73 0 69 0;
#X connect 73 0 70 0;
#X connect 74 0 76 0;
#X connect 75 0 74 0;
#X connect 77 0 79 0;
#X connect 78 0 75 0;
#X connect 79 0 76 1;
#X connect 80 0 78 0;
#X connect 81 0 82 1;
#X connect 81 0 93 0;
#X connect 81 0 95 0;
#X connect 82 0 86 0;
#X connect 83 0 82 0;
#X connect 84 0 194 0;
#X connect 85 0 195 0;
#X connect 86 0 87 0;
#X connect 87 0 88 0;
#X connect 88 0 84 0;
#X connect 88 0 85 0;
#X connect 89 0 91 0;
#X connect 90 0 89 0;
#X connect 92 0 94 0;
#X connect 93 0 90 0;
#X connect 94 0 91 1;
#X connect 95 0 93 0;
#X connect 96 0 97 1;
#X connect 96 0 108 0;
#X connect 96 0 110 0;
#X connect 97 0 101 0;
#X connect 98 0 97 0;
#X connect 99 0 196 0;
#X connect 100 0 197 0;
#X connect 101 0 102 0;
#X connect 102 0 103 0;
#X connect 103 0 99 0;
#X connect 103 0 100 0;
#X connect 104 0 106 0;
#X connect 105 0 104 0;
#X connect 107 0 109 0;
#X connect 108 0 105 0;
#X connect 109 0 106 1;
#X connect 110 0 108 0;
#X connect 111 0 112 1;
#X connect 111 0 123 0;
#X connect 111 0 125 0;
#X connect 112 0 116 0;
#X connect 113 0 112 0;
#X connect 114 0 198 0;
#X connect 115 0 199 0;
#X connect 116 0 117 0;
#X connect 117 0 118 0;
#X connect 118 0 114 0;
#X connect 118 0 115 0;
#X connect 119 0 121 0;
#X connect 120 0 119 0;
#X connect 122 0 124 0;
#X connect 123 0 120 0;
#X connect 124 0 121 1;
#X connect 125 0 123 0;
#X connect 126 0 127 1;
#X connect 126 0 138 0;
#X connect 126 0 140 0;
#X connect 127 0 131 0;
#X connect 128 0 127 0;
#X connect 129 0 200 0;
#X connect 130 0 201 0;
#X connect 131 0 132 0;
#X connect 132 0 133 0;
#X connect 133 0 129 0;
#X connect 133 0 130 0;
#X connect 134 0 136 0;
#X connect 135 0 134 0;
#X connect 137 0 139 0;
#X connect 138 0 135 0;
#X connect 139 0 136 1;
#X connect 140 0 138 0;
#X connect 141 0 142 1;
#X connect 141 0 153 0;
#X connect 141 0 155 0;
#X connect 142 0 146 0;
#X connect 143 0 142 0;
#X connect 144 0 202 0;
#X connect 145 0 203 0;
#X connect 146 0 147 0;
#X connect 147 0 148 0;
#X connect 148 0 144 0;
#X connect 148 0 145 0;
#X connect 149 0 151 0;
#X connect 150 0 149 0;
#X connect 152 0 154 0;
#X connect 153 0 150 0;
#X connect 154 0 151 1;
#X connect 155 0 153 0;
#X connect 156 0 157 1;
#X connect 156 0 168 0;
#X connect 156 0 170 0;
#X connect 157 0 161 0;
#X connect 158 0 157 0;
#X connect 159 0 204 0;
#X connect 160 0 205 0;
#X connect 161 0 162 0;
#X connect 162 0 163 0;
#X connect 163 0 159 0;
#X connect 163 0 160 0;
#X connect 164 0 166 0;
#X connect 165 0 164 0;
#X connect 167 0 169 0;
#X connect 168 0 165 0;
#X connect 169 0 166 1;
#X connect 170 0 168 0;
#X connect 171 0 172 1;
#X connect 171 0 183 0;
#X connect 171 0 185 0;
#X connect 172 0 176 0;
#X connect 173 0 172 0;
#X connect 174 0 206 0;
#X connect 175 0 207 0;
#X connect 176 0 177 0;
#X connect 177 0 178 0;
#X connect 178 0 174 0;
#X connect 178 0 175 0;
#X connect 179 0 181 0;
#X connect 180 0 179 0;
#X connect 182 0 184 0;
#X connect 183 0 180 0;
#X connect 184 0 181 1;
#X connect 185 0 183 0;
#X connect 186 0 29 1;
#X connect 187 0 29 2;
#X connect 188 0 44 1;
#X connect 189 0 44 2;
#X connect 190 0 59 1;
#X connect 191 0 59 2;
#X connect 192 0 74 1;
#X connect 193 0 74 2;
#X connect 194 0 89 1;
#X connect 195 0 89 2;
#X connect 196 0 104 1;
#X connect 197 0 104 2;
#X connect 198 0 119 1;
#X connect 199 0 119 2;
#X connect 200 0 134 1;
#X connect 201 0 134 2;
#X connect 202 0 149 1;
#X connect 203 0 149 2;
#X connect 204 0 164 1;
#X connect 205 0 164 2;
#X connect 206 0 179 1;
#X connect 207 0 179 2;
#X restore 16 173 pd twelvedifferentspots;
#N canvas 554 81 792 707 twelvedifferentcliks 0;
#X obj 77 275 metro;
#X obj 133 297 metro;
#X obj 190 321 metro;
#X obj 237 346 metro;
#X obj 285 366 metro;
#X obj 334 383 metro;
#X obj 376 407 metro;
#X obj 427 407 metro;
#X obj 471 474 metro;
#X obj 522 515 metro;
#X obj 570 525 metro;
#X obj 623 537 metro;
#X obj 46 142 tgl 15 0 empty empty empty 17 7 0 10 -262144 -1 -1 0
1;
#X obj 721 73 loadbang;
#X obj 677 71 bng 15 250 50 0 empty empty empty 17 7 0 10 -262144 -1
-1;
#X obj 30 381 outlet;
#X obj 57 410 outlet;
#X obj 79 445 outlet;
#X obj 106 474 outlet;
#X obj 123 499 outlet;
#X obj 150 528 outlet;
#X obj 172 563 outlet;
#X obj 226 565 outlet;
#X obj 271 596 outlet;
#X obj 298 625 outlet;
#X obj 320 660 outlet;
#X obj 347 689 outlet;
#X msg 703 102 3600;
#X obj 470 92 / 3.6;
#X obj 136 133 r minute;
#X obj 136 157 / 60;
#X obj 136 181 * 1000;
#X obj 134 272 tgl 15 0 empty empty empty 17 7 0 10 -262144 -1 -1 0
1;
#X obj 190 297 tgl 15 0 empty empty empty 17 7 0 10 -262144 -1 -1 0
1;
#X obj 238 324 tgl 15 0 empty empty empty 17 7 0 10 -262144 -1 -1 0
1;
#X obj 290 347 tgl 15 0 empty empty empty 17 7 0 10 -262144 -1 -1 0
1;
#X obj 347 359 tgl 15 0 empty empty empty 17 7 0 10 -262144 -1 -1 0
1;
#X obj 393 370 tgl 15 0 empty empty empty 17 7 0 10 -262144 -1 -1 0
1;
#X obj 440 386 tgl 15 0 empty empty empty 17 7 0 10 -262144 -1 -1 0
1;
#X obj 490 431 tgl 15 0 empty empty empty 17 7 0 10 -262144 -1 -1 0
1;
#X obj 542 472 tgl 15 0 empty empty empty 17 7 0 10 -262144 -1 -1 0
1;
#X obj 619 501 tgl 15 0 empty empty empty 17 7 0 10 -262144 -1 -1 0
1;
#X obj 674 520 tgl 15 0 empty empty empty 17 7 0 10 -262144 -1 -1 0
1;
#X obj 132 225 delay 0;
#X obj 136 202 % 1000;
#X obj 196 163 r minute;
#X obj 196 187 / 60;
#X obj 192 255 delay 0;
#X obj 196 232 % 1000;
#X obj 246 193 r minute;
#X obj 246 217 / 60;
#X obj 242 285 delay 0;
#X obj 246 262 % 1000;
#X obj 306 223 r minute;
#X obj 306 247 / 60;
#X obj 302 315 delay 0;
#X obj 306 292 % 1000;
#X obj 366 233 r minute;
#X obj 366 257 / 60;
#X obj 362 325 delay 0;
#X obj 366 302 % 1000;
#X obj 426 263 r minute;
#X obj 426 287 / 60;
#X obj 422 355 delay 0;
#X obj 426 332 % 1000;
#X obj 476 293 r minute;
#X obj 476 317 / 60;
#X obj 472 385 delay 0;
#X obj 476 362 % 1000;
#X obj 536 323 r minute;
#X obj 536 347 / 60;
#X obj 532 415 delay 0;
#X obj 536 392 % 1000;
#X obj 606 363 r minute;
#X obj 606 387 / 60;
#X obj 602 455 delay 0;
#X obj 606 432 % 1000;
#X obj 656 393 r minute;
#X obj 656 417 / 60;
#X obj 652 485 delay 0;
#X obj 656 462 % 1000;
#X obj 716 423 r minute;
#X obj 716 447 / 60;
#X obj 712 515 delay 0;
#X obj 253 110 r bigbang;
#X obj 420 205 r bigbang;
#X obj 720 298 r bigbang;
#X obj 196 211 * 2000;
#X obj 246 241 * 3000;
#X obj 306 271 * 4000;
#X obj 366 281 * 5000;
#X obj 426 311 * 6000;
#X obj 476 341 * 7000;
#X obj 536 371 * 8000;
#X obj 606 411 * 9000;
#X obj 656 441 * 10000;
#X obj 716 492 % 1000;
#X obj 716 471 * 11000;
#X obj 492 117 / 3.599;
#X obj 511 142 / 3.598;
#X obj 535 164 / 3.597;
#X obj 553 186 / 3.596;
#X obj 575 211 / 3.595;
#X obj 594 236 / 3.594;
#X obj 618 258 / 3.593;
#X obj 634 288 / 3.592;
#X obj 656 313 / 3.591;
#X obj 675 338 / 3.59;
#X obj 699 360 / 3.589;
#X connect 0 0 15 0;
#X connect 1 0 16 0;
#X connect 2 0 17 0;
#X connect 3 0 18 0;
#X connect 4 0 19 0;
#X connect 5 0 20 0;
#X connect 6 0 21 0;
#X connect 7 0 22 0;
#X connect 8 0 23 0;
#X connect 9 0 24 0;
#X connect 10 0 25 0;
#X connect 11 0 26 0;
#X connect 12 0 0 0;
#X connect 13 0 27 0;
#X connect 14 0 27 0;
#X connect 27 0 28 0;
#X connect 27 0 98 0;
#X connect 27 0 99 0;
#X connect 27 0 100 0;
#X connect 27 0 101 0;
#X connect 27 0 102 0;
#X connect 27 0 103 0;
#X connect 27 0 104 0;
#X connect 27 0 105 0;
#X connect 27 0 106 0;
#X connect 27 0 107 0;
#X connect 27 0 108 0;
#X connect 28 0 0 1;
#X connect 29 0 30 0;
#X connect 30 0 31 0;
#X connect 31 0 44 0;
#X connect 32 0 1 0;
#X connect 33 0 2 0;
#X connect 34 0 3 0;
#X connect 35 0 4 0;
#X connect 36 0 5 0;
#X connect 37 0 6 0;
#X connect 38 0 7 0;
#X connect 39 0 8 0;
#X connect 40 0 9 0;
#X connect 41 0 10 0;
#X connect 42 0 11 0;
#X connect 43 0 32 0;
#X connect 44 0 43 1;
#X connect 45 0 46 0;
#X connect 46 0 87 0;
#X connect 47 0 33 0;
#X connect 48 0 47 1;
#X connect 49 0 50 0;
#X connect 50 0 88 0;
#X connect 51 0 34 0;
#X connect 52 0 51 1;
#X connect 53 0 54 0;
#X connect 54 0 89 0;
#X connect 55 0 35 0;
#X connect 56 0 55 1;
#X connect 57 0 58 0;
#X connect 58 0 90 0;
#X connect 59 0 36 0;
#X connect 60 0 59 1;
#X connect 61 0 62 0;
#X connect 62 0 91 0;
#X connect 63 0 37 0;
#X connect 64 0 63 1;
#X connect 65 0 66 0;
#X connect 66 0 92 0;
#X connect 67 0 38 0;
#X connect 68 0 67 1;
#X connect 69 0 70 0;
#X connect 70 0 93 0;
#X connect 71 0 39 0;
#X connect 72 0 71 1;
#X connect 73 0 74 0;
#X connect 74 0 94 0;
#X connect 75 0 40 0;
#X connect 76 0 75 1;
#X connect 77 0 78 0;
#X connect 78 0 95 0;
#X connect 79 0 41 0;
#X connect 80 0 79 1;
#X connect 81 0 82 0;
#X connect 82 0 97 0;
#X connect 83 0 42 0;
#X connect 84 0 12 0;
#X connect 84 0 43 0;
#X connect 84 0 47 0;
#X connect 84 0 51 0;
#X connect 84 0 55 0;
#X connect 85 0 59 0;
#X connect 85 0 63 0;
#X connect 85 0 67 0;
#X connect 85 0 71 0;
#X connect 86 0 75 0;
#X connect 86 0 79 0;
#X connect 86 0 83 0;
#X connect 87 0 48 0;
#X connect 88 0 52 0;
#X connect 89 0 56 0;
#X connect 90 0 60 0;
#X connect 91 0 64 0;
#X connect 92 0 68 0;
#X connect 93 0 72 0;
#X connect 94 0 76 0;
#X connect 95 0 80 0;
#X connect 96 0 83 1;
#X connect 97 0 96 0;
#X connect 98 0 1 1;
#X connect 99 0 2 1;
#X connect 100 0 3 1;
#X connect 101 0 4 1;
#X connect 102 0 5 1;
#X connect 103 0 6 1;
#X connect 104 0 7 1;
#X connect 105 0 8 1;
#X connect 106 0 9 1;
#X connect 107 0 10 1;
#X connect 108 0 11 1;
#X restore 16 129 pd twelvedifferentcliks;
#X text 111 -12 <-- Set the current time here;
#X text 65 48 <-- Bang this to start/stop the clock;
#X text 168 151 <-- (This is where the magic happens);
#X text 21 230 The clock is 12 different harmonics ticking slightly
out of phase. They realign on the hour. Each hour is represented by
a different tone \; beginning with 'A' at midnight/midday \, the clock
will gradually move up a semitone each hour (dropping back down an
octave after 12 hours.) As such the time can be told by listening to
the pitch and rhythm of the clock - listen for the distinct rhythms
that appear throughout the hour.;
#X connect 0 0 8 0;
#X connect 0 1 8 1;
#X connect 0 2 8 2;
#X connect 0 3 8 3;
#X connect 0 4 8 4;
#X connect 0 5 8 5;
#X connect 0 6 8 6;
#X connect 0 7 8 7;
#X connect 0 8 8 8;
#X connect 0 9 8 9;
#X connect 0 10 8 10;
#X connect 0 11 8 11;
#X connect 3 0 2 0;
#X connect 4 0 5 0;
#X connect 6 0 7 0;
#X connect 9 0 0 0;
#X connect 9 1 0 1;
#X connect 9 2 0 2;
#X connect 9 3 0 3;
#X connect 9 4 0 4;
#X connect 9 5 0 5;
#X connect 9 6 0 6;
#X connect 9 7 0 7;
#X connect 9 8 0 8;
#X connect 9 9 0 9;
#X connect 9 10 0 10;
#X connect 9 11 0 11;
